<svg width="80" height="80" viewBox="0 0 80 80" fill="none" xmlns="http://www.w3.org/2000/svg">
<mask id="mask0_214_15098" style="mask-type:alpha" maskUnits="userSpaceOnUse" x="0" y="0" width="80" height="80">
<rect width="80" height="80" fill="#D9D9D9"/>
</mask>
<g mask="url(#mask0_214_15098)">
<path d="M35.3307 56.2565L58.8307 32.5207L54.1641 27.8073L35.3307 46.8296L25.8307 37.2342L21.1641 41.9477L35.3307 56.2565ZM39.9974 74.4371C35.3863 74.4371 31.053 73.5534 26.9974 71.7858C22.9418 70.0182 19.4141 67.6194 16.4141 64.5893C13.4141 61.5592 11.0391 57.996 9.28906 53.8998C7.53906 49.8035 6.66406 45.4267 6.66406 40.7693C6.66406 36.112 7.53906 31.7352 9.28906 27.6389C11.0391 23.5427 13.4141 19.9795 16.4141 16.9494C19.4141 13.9193 22.9418 11.5205 26.9974 9.7529C31.053 7.98534 35.3863 7.10156 39.9974 7.10156C44.6085 7.10156 48.9418 7.98534 52.9974 9.7529C57.053 11.5205 60.5807 13.9193 63.5807 16.9494C66.5807 19.9795 68.9557 23.5427 70.7057 27.6389C72.4557 31.7352 73.3307 36.112 73.3307 40.7693C73.3307 45.4267 72.4557 49.8035 70.7057 53.8998C68.9557 57.996 66.5807 61.5592 63.5807 64.5893C60.5807 67.6194 57.053 70.0182 52.9974 71.7858C48.9418 73.5534 44.6085 74.4371 39.9974 74.4371Z" fill="#34A853"/>
</g>
</svg>
