<svg width="16" height="16" viewBox="0 0 16 16" fill="none" xmlns="http://www.w3.org/2000/svg">
<mask id="mask0_195_16588" style="mask-type:alpha" maskUnits="userSpaceOnUse" x="0" y="0" width="16" height="16">
<rect width="16" height="16" fill="#D9D9D9"/>
</mask>
<g mask="url(#mask0_195_16588)">
<path d="M5.73268 13.827L4.46602 11.7528L2.06602 11.2342L2.29935 8.8359L0.666016 7.02094L2.29935 5.20598L2.06602 2.80764L4.46602 2.28908L5.73268 0.214844L7.99935 1.15473L10.266 0.214844L11.5327 2.28908L13.9327 2.80764L13.6994 5.20598L15.3327 7.02094L13.6994 8.8359L13.9327 11.2342L11.5327 11.7528L10.266 13.827L7.99935 12.8871L5.73268 13.827ZM7.29935 9.32205L11.066 5.65972L10.1327 4.71983L7.29935 7.47468L5.86602 6.11346L4.93268 7.02094L7.29935 9.32205Z" fill="#34A853"/>
</g>
</svg>
