<svg width="16" height="16" viewBox="0 0 16 16" fill="none" xmlns="http://www.w3.org/2000/svg">
<mask id="mask0_874_83868" style="mask-type:alpha" maskUnits="userSpaceOnUse" x="0" y="0" width="16" height="16">
<rect width="16" height="16" fill="#D9D9D9"/>
</mask>
<g mask="url(#mask0_874_83868)">
<path d="M6.66654 9.06589L10.5999 5.13255C10.7221 5.01033 10.8776 4.94922 11.0665 4.94922C11.2554 4.94922 11.411 5.01033 11.5332 5.13255C11.6554 5.25477 11.7165 5.41033 11.7165 5.59922C11.7165 5.78811 11.6554 5.94366 11.5332 6.06589L7.1332 10.4659C6.99987 10.5992 6.84431 10.6659 6.66654 10.6659C6.48876 10.6659 6.3332 10.5992 6.19987 10.4659L4.46654 8.73255C4.34431 8.61033 4.2832 8.45477 4.2832 8.26589C4.2832 8.077 4.34431 7.92144 4.46654 7.79922C4.58876 7.677 4.74431 7.61589 4.9332 7.61589C5.12209 7.61589 5.27765 7.677 5.39987 7.79922L6.66654 9.06589Z" fill="#757575"/>
</g>
</svg>
